<?xml version="1.0" encoding="utf-8"?>
<!-- Generator: Adobe Illustrator 25.3.1, SVG Export Plug-In . SVG Version: 6.00 Build 0)  -->
<svg version="1.1" id="Layer_1" xmlns="http://www.w3.org/2000/svg" xmlns:xlink="http://www.w3.org/1999/xlink" x="0px" y="0px"
	 width="653.6px" height="88.8px" viewBox="0 0 653.6 88.8" style="enable-background:new 0 0 653.6 88.8;" xml:space="preserve">
<style type="text/css">
	.st0{fill:#FFFFFF;}
</style>
<g>
	<path class="st0" d="M1.2,41.8c0.5,0,0.9-0.4,0.9-0.9V22.4c0-0.5-0.4-0.9-0.9-0.9s-0.9,0.4-0.9,0.9v18.5
		C0.3,41.4,0.7,41.8,1.2,41.8z"/>
	<path class="st0" d="M7.6,38c0.5,0,0.9-0.4,0.9-0.9V18.6c0-0.5-0.4-0.9-0.9-0.9c-0.5,0-0.9,0.4-0.9,0.9v18.5
		C6.7,37.6,7.1,38,7.6,38z"/>
	<path class="st0" d="M14.1,34.2c0.5,0,0.9-0.4,0.9-0.9V14.8c0-0.5-0.4-0.9-0.9-0.9s-0.9,0.4-0.9,0.9v18.5
		C13.2,33.8,13.6,34.2,14.1,34.2z"/>
	<path class="st0" d="M21.3,32.6v18.5c0,0.5,0.4,0.9,0.9,0.9s0.9-0.4,0.9-0.9V32.6c0-0.5-0.4-0.9-0.9-0.9S21.3,32.1,21.3,32.6z"/>
	<path class="st0" d="M27.8,28v18.5c0,0.5,0.4,0.9,0.9,0.9s0.9-0.4,0.9-0.9V28c0-0.5-0.4-0.9-0.9-0.9S27.8,27.5,27.8,28z"/>
	<path class="st0" d="M34.2,24.6v18.5c0,0.5,0.4,0.9,0.9,0.9s0.9-0.4,0.9-0.9V24.6c0-0.5-0.4-0.9-0.9-0.9S34.2,24.1,34.2,24.6z"/>
	<path class="st0" d="M64.1,55.2V36.7c0-0.5-0.4-0.9-0.9-0.9c-0.5,0-0.9,0.4-0.9,0.9v18.5c0,0.5,0.4,0.9,0.9,0.9
		C63.7,56.1,64.1,55.7,64.1,55.2z"/>
	<path class="st0" d="M70.6,59.8V41.3c0-0.5-0.4-0.9-0.9-0.9s-0.9,0.4-0.9,0.9v18.5c0,0.5,0.4,0.9,0.9,0.9S70.6,60.3,70.6,59.8z"/>
	<path class="st0" d="M76.2,43.8c-0.5,0-0.9,0.4-0.9,0.9v18.5c0,0.5,0.4,0.9,0.9,0.9s0.9-0.4,0.9-0.9V44.7
		C77,44.2,76.6,43.8,76.2,43.8z"/>
	<path class="st0" d="M42.7,22.3c0.5,0,0.9-0.4,0.9-0.9V2.9c0-0.5-0.4-0.9-0.9-0.9s-0.9,0.4-0.9,0.9v18.5
		C41.8,21.9,42.2,22.3,42.7,22.3z"/>
	<path class="st0" d="M49.2,26.5c0.5,0,0.9-0.4,0.9-0.9V7.1c0-0.5-0.4-0.9-0.9-0.9s-0.9,0.4-0.9,0.9v18.5
		C48.3,26.1,48.7,26.5,49.2,26.5z"/>
	<path class="st0" d="M55.6,29.9c0.5,0,0.9-0.4,0.9-0.9V10.5c0-0.5-0.4-0.9-0.9-0.9s-0.9,0.4-0.9,0.9V29
		C54.7,29.5,55.1,29.9,55.6,29.9z"/>
	<path class="st0" d="M0.7,47.4c0.2,0.3,0.5,0.4,0.8,0.4c0.2,0,0.3,0,0.5-0.1L17.7,38c0.4-0.3,0.5-0.8,0.3-1.2
		c-0.3-0.4-0.8-0.5-1.2-0.3L1,46.2C0.6,46.5,0.5,47,0.7,47.4z"/>
	<path class="st0" d="M1.3,55.3l15.8-9.7c0.4-0.3,0.5-0.8,0.3-1.2c-0.3-0.4-0.8-0.5-1.2-0.3L0.4,53.8C0,54-0.2,54.6,0.1,55
		c0.2,0.3,0.5,0.4,0.8,0.4C1,55.4,1.2,55.4,1.3,55.3z"/>
	<path class="st0" d="M17.9,52c-0.3-0.4-0.8-0.5-1.2-0.3L0.9,61.4c-0.4,0.3-0.5,0.8-0.3,1.2C0.8,62.9,1.1,63,1.4,63
		c0.2,0,0.3,0,0.5-0.1l15.8-9.7C18,53,18.2,52.4,17.9,52z"/>
	<path class="st0" d="M21,11.8c0.2,0,0.3,0,0.5-0.1L37.2,2c0.4-0.3,0.5-0.8,0.3-1.2c-0.3-0.4-0.8-0.5-1.2-0.3l-15.8,9.7
		c-0.4,0.3-0.5,0.8-0.3,1.2C20.4,11.7,20.7,11.8,21,11.8z"/>
	<path class="st0" d="M20.3,19.4c0.2,0,0.3,0,0.5-0.1l15.8-9.7c0.4-0.3,0.5-0.8,0.3-1.2c-0.3-0.4-0.8-0.5-1.2-0.3l-15.8,9.7
		c-0.4,0.3-0.5,0.8-0.3,1.2C19.7,19.3,20,19.4,20.3,19.4z"/>
	<path class="st0" d="M37.4,16c-0.3-0.4-0.8-0.5-1.2-0.3l-15.8,9.7c-0.4,0.3-0.5,0.8-0.3,1.2c0.2,0.3,0.5,0.4,0.8,0.4
		c0.2,0,0.3,0,0.5-0.1l15.8-9.7C37.5,17,37.7,16.4,37.4,16z"/>
	<path class="st0" d="M57.2,51.8c0.3,0,0.6-0.1,0.8-0.4c0.3-0.4,0.1-1-0.3-1.2l-15.8-9.7c-0.4-0.3-1-0.1-1.2,0.3
		c-0.3,0.4-0.1,1,0.3,1.2l15.8,9.7C56.9,51.8,57.1,51.8,57.2,51.8z"/>
	<path class="st0" d="M40.4,34.4l15.8,9.7c0.1,0.1,0.3,0.1,0.5,0.1c0.3,0,0.6-0.1,0.8-0.4c0.3-0.4,0.1-1-0.3-1.2l-15.8-9.7
		c-0.4-0.3-1-0.1-1.2,0.3C39.8,33.6,40,34.2,40.4,34.4z"/>
	<path class="st0" d="M40.9,26.8l15.8,9.7c0.1,0.1,0.3,0.1,0.5,0.1c0.3,0,0.6-0.1,0.8-0.4c0.3-0.4,0.1-1-0.3-1.2l-15.8-9.7
		c-0.4-0.3-1-0.1-1.2,0.3C40.4,26,40.5,26.6,40.9,26.8z"/>
	<path class="st0" d="M76.9,37.3l-15.8-9.7c-0.4-0.3-1-0.1-1.2,0.3c-0.3,0.4-0.1,1,0.3,1.2L76,38.8c0.1,0.1,0.3,0.1,0.5,0.1
		c0.3,0,0.6-0.1,0.8-0.4C77.4,38.1,77.3,37.6,76.9,37.3z"/>
	<path class="st0" d="M59.6,21.8l15.8,9.7c0.1,0.1,0.3,0.1,0.5,0.1c0.3,0,0.6-0.1,0.8-0.4c0.3-0.4,0.1-1-0.3-1.2l-15.8-9.7
		c-0.4-0.3-1-0.1-1.2,0.3C59,21,59.2,21.5,59.6,21.8z"/>
	<path class="st0" d="M60.1,14.4l15.8,9.7c0.1,0.1,0.3,0.1,0.5,0.1c0.3,0,0.6-0.1,0.8-0.4c0.3-0.4,0.1-1-0.3-1.2l-15.8-9.7
		c-0.4-0.3-1-0.1-1.2,0.3C59.6,13.6,59.7,14.1,60.1,14.4z"/>
	<path class="st0" d="M42.1,70.2c-0.3-0.4-0.8-0.5-1.2-0.3l-15.8,9.7c-0.4,0.3-0.5,0.8-0.3,1.2c0.2,0.3,0.5,0.4,0.8,0.4
		c0.2,0,0.3,0,0.5-0.1l15.8-9.7C42.2,71.2,42.4,70.6,42.1,70.2z"/>
	<path class="st0" d="M48.3,73.8c-0.3-0.4-0.8-0.5-1.2-0.3l-15.8,9.7c-0.4,0.3-0.5,0.8-0.3,1.2c0.2,0.3,0.5,0.4,0.8,0.4
		c0.2,0,0.3,0,0.5-0.1L48,75.1C48.4,74.8,48.5,74.3,48.3,73.8z"/>
	<path class="st0" d="M53.8,77.2L38,86.9c-0.4,0.3-0.5,0.8-0.3,1.2c0.2,0.3,0.5,0.4,0.8,0.4c0.2,0,0.3,0,0.5-0.1l15.8-9.7
		c0.4-0.3,0.5-0.8,0.3-1.2C54.7,77.1,54.2,76.9,53.8,77.2z"/>
	<path class="st0" d="M23,56.9c0.2,0.3,0.5,0.4,0.8,0.4c0.2,0,0.3,0,0.5-0.1L40,47.5c0.4-0.3,0.5-0.8,0.3-1.2
		c-0.3-0.4-0.8-0.5-1.2-0.3l-15.8,9.7C22.9,55.9,22.7,56.5,23,56.9z"/>
	<path class="st0" d="M46.4,49.9c-0.3-0.4-0.8-0.5-1.2-0.3l-15.8,9.7c-0.4,0.3-0.5,0.8-0.3,1.2c0.2,0.3,0.5,0.4,0.8,0.4
		c0.2,0,0.3,0,0.5-0.1l15.8-9.7C46.6,50.9,46.7,50.3,46.4,49.9z"/>
	<path class="st0" d="M36.6,64.6c0.2,0,0.3,0,0.5-0.1l15.8-9.7c0.4-0.3,0.5-0.8,0.3-1.2s-0.8-0.5-1.2-0.3l-15.8,9.7
		c-0.4,0.3-0.5,0.8-0.3,1.2C36,64.4,36.3,64.6,36.6,64.6z"/>
	<path class="st0" d="M59.3,74.2l-15.8-9.7c-0.4-0.3-1-0.1-1.2,0.3c-0.3,0.4-0.1,1,0.3,1.2l15.8,9.7c0.1,0.1,0.3,0.1,0.5,0.1
		c0.3,0,0.6-0.1,0.8-0.4C59.9,75,59.7,74.5,59.3,74.2z"/>
	<path class="st0" d="M65.5,70.6l-15.8-9.7c-0.4-0.3-1-0.1-1.2,0.3c-0.3,0.4-0.1,1,0.3,1.2l15.8,9.7c0.1,0.1,0.3,0.1,0.5,0.1
		c0.3,0,0.6-0.1,0.8-0.4C66.1,71.4,65.9,70.9,65.5,70.6z"/>
	<path class="st0" d="M72.2,67l-15.8-9.7c-0.4-0.3-1-0.1-1.2,0.3c-0.3,0.4-0.1,1,0.3,1.2l15.8,9.7c0.1,0.1,0.3,0.1,0.5,0.1
		c0.3,0,0.6-0.1,0.8-0.4C72.7,67.8,72.6,67.2,72.2,67z"/>
	<path class="st0" d="M20.9,76L5.1,66.3c-0.4-0.3-1-0.1-1.2,0.3c-0.3,0.4-0.1,1,0.3,1.2L20,77.5c0.1,0.1,0.3,0.1,0.5,0.1
		c0.3,0,0.6-0.1,0.8-0.4C21.5,76.8,21.3,76.3,20.9,76z"/>
	<path class="st0" d="M11.3,62.7c-0.4-0.3-1-0.1-1.2,0.3c-0.3,0.4-0.1,1,0.3,1.2l15.8,9.7c0.1,0.1,0.3,0.1,0.5,0.1
		c0.3,0,0.6-0.1,0.8-0.4c0.3-0.4,0.1-1-0.3-1.2L11.3,62.7z"/>
	<path class="st0" d="M33.3,70.4c0.3,0,0.6-0.1,0.8-0.4c0.3-0.4,0.1-1-0.3-1.2L18,59.1c-0.4-0.3-1-0.1-1.2,0.3
		c-0.3,0.4-0.1,1,0.3,1.2l15.8,9.7C33,70.4,33.2,70.4,33.3,70.4z"/>
</g>
<g>
	<path class="st0" d="M103,39.1l-6.3,16.2h2.1l1.7-4.5h7.3l1.7,4.5h2.1l-6.3-16.2H103z M101.2,48.9l2.2-5.8l0.7-2.2h0l0.8,2.3
		l2.2,5.7H101.2z"/>
	<path class="st0" d="M133.8,51.6c-0.5,0.4-1.2,0.6-2,0.6c-0.8,0-1.5-0.2-2.1-0.6c-0.6-0.4-1-0.9-1.3-1.7c-0.3-0.8-0.4-1.7-0.4-2.8
		c0-1.1,0.2-2,0.5-2.8s0.7-1.3,1.3-1.7c0.6-0.4,1.2-0.6,2-0.6c0.8,0,1.4,0.2,1.9,0.6c0.5,0.4,0.9,1.1,1.1,2.1l3.7-1.5
		c-0.3-1-0.7-1.9-1.4-2.5s-1.5-1.1-2.4-1.5c-0.9-0.3-2-0.5-3.1-0.5c-1.6,0-3,0.3-4.2,1c-1.2,0.7-2.1,1.6-2.7,2.9
		c-0.6,1.2-1,2.7-1,4.5c0,1.7,0.3,3.2,1,4.5c0.6,1.2,1.6,2.2,2.7,2.9c1.2,0.7,2.6,1,4.2,1c1.1,0,2.2-0.2,3.1-0.5s1.8-0.9,2.5-1.6
		c0.7-0.7,1.2-1.7,1.5-2.8l-3.8-1.1C134.7,50.5,134.3,51.1,133.8,51.6z"/>
	<path class="st0" d="M146.5,39.1l-5.7,16.2h4.2l1.1-3.7h5.6l1.1,3.7h4.3l-5.7-16.2H146.5z M147.1,48.8l1.2-3.9l0.7-2.5h0l0.7,2.5
		l1.2,3.9H147.1z"/>
	<polygon class="st0" points="157.4,42.4 162.7,42.4 162.7,55.3 166.9,55.3 166.9,42.4 172.1,42.4 172.1,39.1 157.4,39.1 	"/>
	<path class="st0" d="M178,39.1l-5.7,16.2h4.2l1.1-3.7h5.6l1.1,3.7h4.3L183,39.1H178z M178.5,48.8l1.2-3.9l0.7-2.5h0l0.7,2.5
		l1.2,3.9H178.5z"/>
	<polygon class="st0" points="196.2,39.1 192,39.1 192,55.3 204.4,55.3 204.4,52 196.2,52 	"/>
	<polygon class="st0" points="212.6,43.5 211.4,46.2 210.2,43.5 207.9,39.1 203.5,39.1 209.3,49.4 209.3,55.3 213.5,55.3 
		213.5,49.4 219.2,39.1 214.9,39.1 	"/>
	<path class="st0" d="M226.4,42.3c0.4-0.1,0.9-0.2,1.5-0.2c1,0,1.9,0.2,2.8,0.6c0.8,0.4,1.6,0.9,2.3,1.7l2-2.7c-0.8-0.9-1.8-1.6-3-2
		s-2.5-0.7-4-0.7c-1.5,0-2.7,0.2-3.7,0.7c-1,0.5-1.8,1.1-2.4,1.9c-0.6,0.8-0.8,1.7-0.8,2.7c0,0.9,0.2,1.6,0.6,2.2s1,1.1,1.7,1.4
		c0.7,0.4,1.5,0.6,2.4,0.8l3,0.7c0.7,0.2,1.2,0.4,1.4,0.6c0.2,0.2,0.4,0.5,0.4,0.9c0,0.3-0.1,0.6-0.3,0.8c-0.2,0.2-0.5,0.4-0.8,0.5
		c-0.4,0.1-0.9,0.2-1.4,0.2c-0.7,0-1.5-0.1-2.2-0.3c-0.7-0.2-1.4-0.5-2-0.9c-0.6-0.4-1.1-0.8-1.5-1.3l-2,2.8c0.5,0.6,1.2,1.1,2,1.5
		s1.7,0.8,2.6,1c1,0.2,2,0.4,3.1,0.4c1.3,0,2.5-0.2,3.5-0.6c1-0.4,1.8-1,2.4-1.8s0.9-1.8,0.9-2.9c0-1.2-0.4-2.1-1.1-2.9
		c-0.8-0.7-1.9-1.3-3.6-1.6l-2.7-0.6c-0.7-0.2-1.2-0.4-1.6-0.6s-0.5-0.5-0.5-0.9c0-0.3,0.1-0.6,0.2-0.8
		C225.8,42.6,226,42.4,226.4,42.3z"/>
	<polygon class="st0" points="237.4,42.4 242.7,42.4 242.7,55.3 246.9,55.3 246.9,42.4 252.2,42.4 252.2,39.1 237.4,39.1 	"/>
	<path class="st0" d="M267.6,39.1l-5.7,16.2h4.2l1.1-3.7h5.6l1.1,3.7h4.3l-5.7-16.2H267.6z M268.2,48.8l1.2-3.9l0.7-2.5h0l0.7,2.5
		l1.2,3.9H268.2z"/>
	<path class="st0" d="M290.5,51.6c-0.5,0.4-1.2,0.6-2,0.6c-0.8,0-1.5-0.2-2.1-0.6c-0.6-0.4-1-0.9-1.3-1.7c-0.3-0.8-0.4-1.7-0.4-2.8
		c0-1.1,0.2-2,0.5-2.8s0.7-1.3,1.3-1.7c0.6-0.4,1.2-0.6,2-0.6c0.8,0,1.4,0.2,1.9,0.6c0.5,0.4,0.9,1.1,1.1,2.1l3.7-1.5
		c-0.3-1-0.7-1.9-1.4-2.5s-1.5-1.1-2.4-1.5c-0.9-0.3-2-0.5-3.1-0.5c-1.6,0-3,0.3-4.2,1s-2.1,1.6-2.7,2.9c-0.6,1.2-1,2.7-1,4.5
		c0,1.7,0.3,3.2,1,4.5c0.6,1.2,1.6,2.2,2.7,2.9c1.2,0.7,2.6,1,4.2,1c1.1,0,2.2-0.2,3.1-0.5s1.8-0.9,2.5-1.6c0.7-0.7,1.2-1.7,1.5-2.8
		l-3.8-1.1C291.4,50.5,291,51.1,290.5,51.6z"/>
	<path class="st0" d="M310.7,39.8c-1.2-0.7-2.6-1-4.2-1c-1.6,0-3,0.3-4.2,1s-2.1,1.6-2.7,2.9c-0.6,1.2-1,2.7-1,4.5
		c0,1.7,0.3,3.2,1,4.5c0.6,1.2,1.6,2.2,2.7,2.9c1.2,0.7,2.6,1,4.2,1c1.6,0,3-0.3,4.2-1c1.2-0.7,2.1-1.6,2.7-2.9c0.6-1.2,1-2.7,1-4.5
		c0-1.7-0.3-3.2-1-4.5C312.8,41.5,311.9,40.5,310.7,39.8z M309.7,50c-0.3,0.8-0.7,1.3-1.2,1.7c-0.5,0.4-1.2,0.6-2,0.6
		c-0.8,0-1.4-0.2-2-0.6c-0.5-0.4-0.9-0.9-1.2-1.7c-0.3-0.8-0.4-1.7-0.4-2.8c0-1.1,0.1-2,0.4-2.8c0.3-0.7,0.7-1.3,1.2-1.7
		c0.5-0.4,1.2-0.6,2-0.6c0.8,0,1.4,0.2,2,0.6c0.5,0.4,0.9,0.9,1.2,1.7c0.3,0.7,0.4,1.7,0.4,2.8C310.1,48.3,309.9,49.2,309.7,50z"/>
	<path class="st0" d="M328.7,48.8c0,1.2-0.2,2-0.7,2.6c-0.5,0.6-1.3,0.9-2.3,0.9c-1,0-1.7-0.3-2.2-0.9c-0.5-0.6-0.7-1.4-0.7-2.6
		v-9.7h-4.2v9.6c0,2.3,0.6,4,1.8,5.1c1.2,1.1,3,1.7,5.4,1.7c2.4,0,4.2-0.6,5.4-1.7c1.2-1.1,1.8-2.8,1.8-5.1v-9.6h-4.2V48.8z"/>
	<path class="st0" d="M342.4,42.3c0.4-0.1,0.9-0.2,1.5-0.2c1,0,1.9,0.2,2.8,0.6c0.8,0.4,1.6,0.9,2.3,1.7l2-2.7c-0.8-0.9-1.8-1.6-3-2
		s-2.5-0.7-4-0.7c-1.5,0-2.7,0.2-3.7,0.7c-1,0.5-1.8,1.1-2.4,1.9c-0.6,0.8-0.8,1.7-0.8,2.7c0,0.9,0.2,1.6,0.6,2.2s1,1.1,1.7,1.4
		c0.7,0.4,1.5,0.6,2.4,0.8l3,0.7c0.7,0.2,1.2,0.4,1.4,0.6c0.2,0.2,0.4,0.5,0.4,0.9c0,0.3-0.1,0.6-0.3,0.8c-0.2,0.2-0.5,0.4-0.8,0.5
		c-0.4,0.1-0.9,0.2-1.4,0.2c-0.7,0-1.5-0.1-2.2-0.3c-0.7-0.2-1.4-0.5-2-0.9c-0.6-0.4-1.1-0.8-1.5-1.3l-2,2.8c0.5,0.6,1.2,1.1,2,1.5
		c0.8,0.4,1.7,0.8,2.6,1c1,0.2,2,0.4,3.1,0.4c1.3,0,2.5-0.2,3.5-0.6c1-0.4,1.8-1,2.4-1.8c0.6-0.8,0.9-1.8,0.9-2.9
		c0-1.2-0.4-2.1-1.1-2.9c-0.8-0.7-1.9-1.3-3.6-1.6l-2.7-0.6c-0.7-0.2-1.2-0.4-1.6-0.6s-0.5-0.5-0.5-0.9c0-0.3,0.1-0.6,0.2-0.8
		C341.7,42.6,342,42.4,342.4,42.3z"/>
	<polygon class="st0" points="353.4,42.4 358.7,42.4 358.7,55.3 362.9,55.3 362.9,42.4 368.2,42.4 368.2,39.1 353.4,39.1 	"/>
	<rect x="372.1" y="39.1" class="st0" width="4.2" height="16.2"/>
	<path class="st0" d="M390.7,51.6c-0.5,0.4-1.2,0.6-2,0.6c-0.8,0-1.5-0.2-2.1-0.6c-0.6-0.4-1-0.9-1.3-1.7c-0.3-0.8-0.4-1.7-0.4-2.8
		c0-1.1,0.2-2,0.5-2.8c0.3-0.7,0.7-1.3,1.3-1.7c0.6-0.4,1.2-0.6,2-0.6c0.8,0,1.4,0.2,1.9,0.6c0.5,0.4,0.9,1.1,1.1,2.1l3.7-1.5
		c-0.3-1-0.7-1.9-1.4-2.5s-1.5-1.1-2.4-1.5c-0.9-0.3-2-0.5-3.1-0.5c-1.6,0-3,0.3-4.2,1s-2.1,1.6-2.7,2.9c-0.6,1.2-1,2.7-1,4.5
		c0,1.7,0.3,3.2,1,4.5c0.6,1.2,1.6,2.2,2.7,2.9c1.2,0.7,2.6,1,4.2,1c1.1,0,2.2-0.2,3.1-0.5s1.8-0.9,2.5-1.6c0.7-0.7,1.2-1.7,1.5-2.8
		l-3.8-1.1C391.6,50.5,391.3,51.1,390.7,51.6z"/>
	<path class="st0" d="M404.3,42.3c0.4-0.1,0.9-0.2,1.5-0.2c1,0,1.9,0.2,2.8,0.6c0.8,0.4,1.6,0.9,2.3,1.7l2-2.7c-0.8-0.9-1.8-1.6-3-2
		s-2.5-0.7-4-0.7c-1.5,0-2.7,0.2-3.7,0.7c-1,0.5-1.8,1.1-2.4,1.9c-0.6,0.8-0.8,1.7-0.8,2.7c0,0.9,0.2,1.6,0.6,2.2s1,1.1,1.7,1.4
		c0.7,0.4,1.5,0.6,2.4,0.8l3,0.7c0.7,0.2,1.2,0.4,1.4,0.6c0.2,0.2,0.4,0.5,0.4,0.9c0,0.3-0.1,0.6-0.3,0.8c-0.2,0.2-0.5,0.4-0.8,0.5
		c-0.4,0.1-0.9,0.2-1.4,0.2c-0.7,0-1.5-0.1-2.2-0.3c-0.7-0.2-1.4-0.5-2-0.9c-0.6-0.4-1.1-0.8-1.5-1.3l-2,2.8c0.5,0.6,1.2,1.1,2,1.5
		c0.8,0.4,1.7,0.8,2.6,1c1,0.2,2,0.4,3.1,0.4c1.3,0,2.5-0.2,3.5-0.6c1-0.4,1.8-1,2.4-1.8c0.6-0.8,0.9-1.8,0.9-2.9
		c0-1.2-0.4-2.1-1.1-2.9c-0.8-0.7-1.9-1.3-3.6-1.6l-2.7-0.6c-0.7-0.2-1.2-0.4-1.6-0.6s-0.5-0.5-0.5-0.9c0-0.3,0.1-0.6,0.2-0.8
		C403.6,42.6,403.9,42.4,404.3,42.3z"/>
	<path class="st0" d="M432.4,49.4h3.7v0.2c0,0.5-0.1,0.9-0.2,1.2c-0.2,0.3-0.4,0.6-0.7,0.8c-0.3,0.2-0.6,0.4-1,0.5
		c-0.4,0.1-0.8,0.2-1.3,0.2c-0.9,0-1.6-0.2-2.2-0.6c-0.6-0.4-1-0.9-1.3-1.7c-0.3-0.8-0.5-1.7-0.5-2.9c0-1.1,0.1-2,0.4-2.8
		c0.3-0.7,0.7-1.3,1.3-1.7c0.6-0.4,1.3-0.6,2.1-0.6c0.8,0,1.5,0.2,2,0.6c0.5,0.4,0.9,1,1.1,1.8l3.9-1.5c-0.6-1.4-1.5-2.5-2.6-3.1
		s-2.6-1-4.4-1c-1.7,0-3.1,0.3-4.3,1c-1.2,0.7-2.2,1.6-2.8,2.9s-1,2.7-1,4.5c0,1.8,0.3,3.3,0.9,4.5s1.5,2.2,2.6,2.8
		c1.1,0.6,2.4,1,3.8,1c1.4,0,2.6-0.3,3.4-0.9c0.5-0.4,1-0.8,1.3-1.4l0.2,2h2.9v-8.7h-7.3V49.4z"/>
	<path class="st0" d="M456.6,47.8c1.1-0.9,1.6-2.1,1.6-3.8c0-1.5-0.5-2.7-1.6-3.6c-1.1-0.9-2.6-1.4-4.5-1.4h-7.7v16.2h4.1v-5.9h2.5
		l3.5,5.9h4.7l-4.2-6.5C455.6,48.5,456.2,48.2,456.6,47.8z M448.5,42.3h3c0.8,0,1.4,0.2,1.8,0.5c0.4,0.3,0.6,0.8,0.6,1.5
		c0,0.7-0.2,1.2-0.6,1.6c-0.4,0.3-1,0.5-1.8,0.5h-3V42.3z"/>
	<path class="st0" d="M474.1,39.8c-1.2-0.7-2.6-1-4.2-1c-1.6,0-3,0.3-4.2,1s-2.1,1.6-2.7,2.9c-0.6,1.2-1,2.7-1,4.5
		c0,1.7,0.3,3.2,1,4.5c0.6,1.2,1.6,2.2,2.7,2.9c1.2,0.7,2.6,1,4.2,1c1.6,0,3-0.3,4.2-1c1.2-0.7,2.1-1.6,2.7-2.9c0.6-1.2,1-2.7,1-4.5
		c0-1.7-0.3-3.2-1-4.5C476.2,41.5,475.2,40.5,474.1,39.8z M473,50c-0.3,0.8-0.7,1.3-1.2,1.7c-0.5,0.4-1.2,0.6-2,0.6
		c-0.8,0-1.4-0.2-2-0.6c-0.5-0.4-0.9-0.9-1.2-1.7c-0.3-0.8-0.4-1.7-0.4-2.8c0-1.1,0.1-2,0.4-2.8c0.3-0.7,0.7-1.3,1.2-1.7
		c0.5-0.4,1.2-0.6,2-0.6c0.8,0,1.4,0.2,2,0.6c0.5,0.4,0.9,0.9,1.2,1.7c0.3,0.7,0.4,1.7,0.4,2.8C473.4,48.3,473.3,49.2,473,50z"/>
	<path class="st0" d="M492,48.8c0,1.2-0.2,2-0.7,2.6c-0.5,0.6-1.3,0.9-2.3,0.9c-1,0-1.7-0.3-2.2-0.9c-0.5-0.6-0.7-1.4-0.7-2.6v-9.7
		h-4.2v9.6c0,2.3,0.6,4,1.8,5.1c1.2,1.1,3,1.7,5.4,1.7c2.4,0,4.2-0.6,5.4-1.7s1.8-2.8,1.8-5.1v-9.6H492V48.8z"/>
	<path class="st0" d="M511.8,39.7c-0.9-0.4-2.1-0.6-3.4-0.6H501v16.2h4.2v-5.4h3.2c1.3,0,2.5-0.2,3.4-0.6c0.9-0.4,1.6-1,2.1-1.8
		s0.7-1.8,0.7-2.9s-0.2-2.1-0.7-2.9S512.7,40.2,511.8,39.7z M509.7,46.2c-0.4,0.4-1.1,0.6-2,0.6h-2.5v-4.5h2.5c0.9,0,1.5,0.2,2,0.6
		c0.4,0.4,0.7,0.9,0.7,1.7S510.2,45.8,509.7,46.2z"/>
	<path class="st0" d="M538.8,52.9c-0.8,0.5-1.7,0.8-2.8,0.8c-1.1,0-2.1-0.3-2.9-0.8c-0.8-0.5-1.4-1.3-1.9-2.2
		c-0.4-1-0.7-2.1-0.7-3.5c0-1.4,0.2-2.5,0.7-3.5c0.5-1,1.1-1.7,1.9-2.2s1.8-0.8,2.9-0.8c1.1,0,2,0.2,2.6,0.7
		c0.7,0.5,1.2,1.2,1.6,2.1l1.9-0.9c-0.3-0.8-0.8-1.5-1.4-2.1c-0.6-0.6-1.3-1-2.1-1.3c-0.8-0.3-1.7-0.4-2.8-0.4c-1.5,0-2.8,0.3-3.9,1
		c-1.1,0.7-2,1.6-2.6,2.9c-0.6,1.2-0.9,2.7-0.9,4.4s0.3,3.2,0.9,4.4s1.5,2.2,2.6,2.9c1.1,0.7,2.4,1,4,1c1,0,1.9-0.2,2.8-0.5
		c0.9-0.3,1.6-0.8,2.2-1.5s1.1-1.4,1.5-2.4l-2-0.7C540.2,51.5,539.6,52.3,538.8,52.9z"/>
	<path class="st0" d="M558.3,39.9c-1.1-0.7-2.4-1-4-1s-2.9,0.3-4,1c-1.1,0.7-2,1.6-2.6,2.9c-0.6,1.2-0.9,2.7-0.9,4.4
		s0.3,3.2,0.9,4.4s1.5,2.2,2.6,2.9c1.1,0.7,2.4,1,4,1s2.9-0.3,4-1c1.1-0.7,2-1.6,2.6-2.9s0.9-2.7,0.9-4.4s-0.3-3.2-0.9-4.4
		C560.3,41.5,559.4,40.5,558.3,39.9z M559.1,50.7c-0.4,1-1.1,1.7-1.9,2.2s-1.8,0.8-2.9,0.8c-1.1,0-2.1-0.3-2.9-0.8
		c-0.8-0.5-1.4-1.3-1.9-2.2c-0.4-1-0.7-2.1-0.7-3.5c0-1.4,0.2-2.5,0.7-3.5c0.4-1,1.1-1.7,1.9-2.2c0.8-0.5,1.8-0.8,2.9-0.8
		c1.1,0,2.1,0.3,2.9,0.8s1.4,1.3,1.9,2.2s0.7,2.1,0.7,3.5C559.7,48.5,559.5,49.7,559.1,50.7z"/>
	<polygon class="st0" points="576.7,48.9 575.4,53 575.4,53 574.1,48.9 570.6,39.1 567.6,39.1 567.6,55.3 569.4,55.3 569.4,45.1 
		569.2,40.8 569.2,40.8 574.5,55.3 576.2,55.3 581.5,40.8 581.6,40.8 581.3,45.1 581.3,55.3 583.2,55.3 583.2,39.1 580.2,39.1 	"/>
	<path class="st0" d="M598.5,39.7c-0.8-0.4-1.8-0.6-2.9-0.6H590v16.2h2v-6.3h3.7c1.1,0,2-0.2,2.9-0.6c0.8-0.4,1.4-1,1.9-1.7
		s0.7-1.6,0.7-2.6c0-1-0.2-1.9-0.7-2.6C600,40.7,599.3,40.1,598.5,39.7z M598.2,46.3c-0.6,0.5-1.5,0.8-2.8,0.8h-3.5v-6.2h3.5
		c1.3,0,2.2,0.3,2.8,0.8c0.6,0.5,0.9,1.3,0.9,2.3C599,45,598.8,45.8,598.2,46.3z"/>
	<path class="st0" d="M609.5,39.1l-6.3,16.2h2.1l1.7-4.5h7.3l1.7,4.5h2.1l-6.3-16.2H609.5z M607.7,48.9l2.2-5.8l0.7-2.2h0l0.8,2.3
		l2.2,5.7H607.7z"/>
	<polygon class="st0" points="633.7,50.5 633.8,53 633.7,53 632,49.9 625.3,39.1 622.8,39.1 622.8,55.3 624.7,55.3 624.7,43.9 
		624.6,41.4 624.6,41.4 626.3,44.4 633.1,55.3 635.5,55.3 635.5,39.1 633.7,39.1 	"/>
	<polygon class="st0" points="651.1,39.1 647.9,44.6 646.7,46.9 645.4,44.6 642.2,39.1 639.9,39.1 645.7,48.9 645.7,55.3 
		647.6,55.3 647.6,48.9 653.4,39.1 	"/>
</g>
</svg>
